<svg width="25" height="26" viewBox="0 0 25 26" fill="none" xmlns="http://www.w3.org/2000/svg">
<path d="M15.625 13.3401L11.4583 9.17342M15.625 13.3401L11.4583 17.5068M15.625 13.3401H5.20831M10.4166 22.7151C11.6478 22.7151 12.8669 22.4726 14.0043 22.0015C15.1417 21.5303 16.1752 20.8398 17.0458 19.9692C17.9163 19.0987 18.6069 18.0652 19.078 16.9277C19.5492 15.7903 19.7916 14.5712 19.7916 13.3401C19.7916 12.1089 19.5492 10.8899 19.078 9.75243C18.6069 8.615 17.9163 7.58151 17.0458 6.71096C16.1752 5.84041 15.1417 5.14985 14.0043 4.67872C12.8669 4.20758 11.6478 3.96509 10.4166 3.96509" stroke="url(#paint0_linear_1_72)" stroke-width="1.5" stroke-linecap="round" stroke-linejoin="round"/>
<defs>
<linearGradient id="paint0_linear_1_72" x1="12.5" y1="3.96509" x2="12.5" y2="22.7151" gradientUnits="userSpaceOnUse">
<stop stop-color="#820AD1"/>
<stop offset="1" stop-color="#39005F"/>
</linearGradient>
</defs>
</svg>
