<svg width="74" height="41" viewBox="0 0 74 41" fill="none" xmlns="http://www.w3.org/2000/svg">
<g clip-path="url(#clip0_1_57)">
<path d="M14.1093 4.15566C16.3915 1.74705 19.4188 0.340088 22.9754 0.340088C29.9038 0.340088 34.4975 5.42186 35.3764 13.0347C35.6613 15.507 35.6587 18.9925 35.6558 23.0296C35.6555 23.4436 35.6552 23.8635 35.6552 24.2886V39.4123H26.1272V28.2263C26.1272 28.2263 26.1078 18.6527 26.0496 16.8635C25.7939 9.0707 21.2015 4.17411 14.1083 4.16885C11.9683 6.44016 10.8216 9.21724 10.6525 13.4635C10.6293 14.0557 10.6351 16.155 10.6428 18.9217C10.6468 20.3552 10.6513 21.968 10.6525 23.6431C10.6596 30.9342 10.6525 39.414 10.6525 39.414H1.12459V22.1988C1.12459 21.609 1.11389 21.0141 1.10315 20.4168C1.08154 19.2155 1.05976 18.0048 1.12459 16.8061C1.23224 14.8077 1.57637 12.8432 2.50463 11.0182C4.6294 6.83734 8.98307 4.14541 13.6244 4.14541C13.7866 4.14541 13.9488 4.14884 14.1093 4.15566Z" fill="#820AD1"/>
<path d="M73.2087 23.8741C73.2736 22.6754 73.2518 21.4646 73.2303 20.2634C73.2194 19.6661 73.2087 19.0713 73.2087 18.4814V1.26622H63.6809C63.6809 1.26622 63.6738 9.74597 63.6809 17.037C63.682 18.7121 63.6865 20.3248 63.6904 21.7583C63.6982 24.5251 63.704 26.6244 63.6809 27.2166C63.5118 31.463 62.365 34.24 60.225 36.5114C53.132 36.506 48.5397 31.6094 48.2839 23.8168C48.2257 22.0275 48.201 17.5874 48.201 12.4449V1.25891L38.6801 1.26785V16.3916C38.6801 16.8168 38.6798 17.2365 38.6795 17.6506C38.6765 21.6878 38.674 25.1731 38.959 27.6455C39.836 35.2584 44.4296 40.3401 51.3581 40.3401C54.9148 40.3401 57.9421 38.9331 60.2243 36.5245C60.3847 36.5314 60.5468 36.5348 60.7089 36.5348C65.3502 36.5348 69.704 33.8429 71.8288 29.662C72.757 27.8369 73.1011 25.8725 73.2087 23.8741Z" fill="#820AD1"/>
</g>
<defs>
<clipPath id="clip0_1_57">
<rect width="73" height="40" fill="white" transform="translate(0.666687 0.340088)"/>
</clipPath>
</defs>
</svg>
